<?xml version="1.0" encoding="UTF-8"?><svg id="_レイヤー_1" xmlns="http://www.w3.org/2000/svg" viewBox="0 0 150 150"><defs><style>.cls-1{fill:#1db3ab;}</style></defs><path class="cls-1" d="m128.98,108.05s-2.05-9.12-3.53-13.39c-1.49-4.28-8.56-2.23-8.56-2.23l-6.73-13.51,2.64-11.34s6.86-.11,10.88-.88c4.02-.77,3.95-3.43,2.68-5.61-2.93-5.04-12.19-12.58-12.19-12.58-2.05-18.94-11.55-28.75-25.44-31.03l5.64-2.63-4-5.74-9.49,7.48-10.21-6.87-2.87,6.38,4.44,1.77c-.49.09-.99.18-1.49.28-23.37,4.63-26.34,29.83-26.34,29.83,0,0-7.43,7.32-10.89,10.45-3.46,3.12-2.89,4.71-1.46,5.9,1.43,1.19,14.92-2.42,14.92-2.42,0,0,1.4,4.26,1.7,5.52.3,1.27-2.52,7.87-4.68,12.41-1.36,2.85,2.54,5.34,6.97,4.66,3.17-.49,2.92,1.79,2.75,4.95-.07,1.18,1.93,2.02,3.32,2.04-.9.56-1.87,1.49-1.45,2.4,1.21,2.63,2.32.47,3.58,2.97,1.46,2.91,2.56,8.29,7.26,7.93,4.7-.36,9.67-3.56,9.67-3.56l4.52,8.7-5.96,11.91s-4.48,4.24-8.12,15.15c38.18-15.46,65.45-9.09,69.09-18.18,2.27-5.66-6.65-10.74-6.65-10.74Z"/><path class="cls-1" d="m35.1,114.02c6.08-5.02,8.05-14.34,4.23-22.67-4.46-9.73-15.12-14.39-23.8-10.4-8.68,3.98-12.1,15.09-7.63,24.82,4.07,8.87,13.29,13.5,21.46,11.24l9.2,20.06c.66,1.43,2.5,1.99,4.12,1.25,1.62-.74,2.4-2.51,1.75-3.94l-9.33-20.35Zm-20.71-11.23c-2.86-6.22-.67-13.33,4.88-15.87,5.55-2.55,12.37.43,15.22,6.66,2.85,6.22.67,13.33-4.88,15.87-5.55,2.55-12.37-.43-15.22-6.65Z"/></svg>