<?xml version="1.0" encoding="UTF-8"?><svg id="_レイヤー_1" xmlns="http://www.w3.org/2000/svg" viewBox="0 0 150 150"><defs><style>.cls-1{fill:#1db3ab;}</style></defs><path class="cls-1" d="m136.03,82.22l-12.11,10.72-34.22,30.28c-2.16,1.9-4.9,2.92-7.72,2.92-.82,0-1.65-.08-2.47-.25l-19.56-4.33-23.62-5.22-16.56-3.66-2.37-.53c-.75-.25-1.42-.59-2-1.02-.94-.69-1.69-1.57-2.2-2.59-.53-1.02-.8-2.15-.8-3.31,0-.7.12-1.45.33-2.18.26-.78.63-1.49,1.08-2.12.67-.94,1.57-1.69,2.59-2.2,1-.53,2.14-.8,3.29-.8h.18l12.87,2.82,16.5,3.6,28.66,6.27c1.39.31,2.8.45,4.21.45.81,0,1.59-.04,2.38-.14,3.96-.47,7.72-2.12,10.8-4.82l.98-.86,34.02-30.12,11.33-10.04c1.47-1.29,1.78-3.39.88-5.03-.14-.28-.31-.55-.53-.78-1.49-1.7-4.1-1.86-5.8-.35l-12.11,10.72-34.22,30.28c-2.16,1.9-4.9,2.92-7.73,2.92-.82,0-1.65-.08-2.47-.25l-19.56-4.33-23.62-5.21-16.56-3.66h-.03v-.06l-.11-.02-2.37-.53c-.12-.04-.22-.1-.33-.14-.29-.12-.58-.22-.84-.39-.23-.1-.47-.25-.68-.41-.94-.69-1.69-1.57-2.2-2.59-.53-1.02-.81-2.15-.81-3.31,0-.71.12-1.45.33-2.18.25-.78.63-1.49,1.08-2.12.67-.94,1.57-1.68,2.59-2.19,1-.53,2.14-.81,3.3-.81.2,0,.39.02.59.02l9.05,1.96,8.02,1.72,39.6,8.57c4.9,1.08,10.01-.25,13.78-3.59l24.34-21.44,14.56-12.82,10.29-9.07c2.24-1.98,3.18-5.04,2.41-7.92-.75-2.9-3.06-5.11-5.98-5.74l-3.1-.67-22.58-4.88-28.59-6.18c-4.9-1.08-10.01.25-13.78,3.59L30.23,51.76l-11.49,10.09-9.99,8.78c-.41.47-.76.94-1.08,1.45-.18.22-.33.41-.49.65-.98,1.33-1.76,2.86-2.29,4.53-.49,1.55-.73,3.13-.73,4.68,0,3.35,1.08,6.54,2.98,9.17.6.83,1.31,1.59,2.06,2.29l-.04.04-.55.47c-.41.47-.76.94-1.08,1.45-.17.21-.33.41-.49.64-.98,1.33-1.76,2.86-2.29,4.53-.49,1.55-.73,3.13-.73,4.68,0,3.35,1.08,6.54,2.98,9.17.96,1.33,2.12,2.51,3.47,3.49,1.33.98,2.86,1.76,4.52,2.27l.18.06,17.42,3.82,16.5,3.6,28.66,6.27c1.39.31,2.8.45,4.21.45,4.81,0,9.48-1.73,13.17-4.96l.98-.86,34.02-30.13,11.33-10.03c1.7-1.51,1.86-4.11.35-5.82-1.49-1.7-4.09-1.86-5.8-.35Z"/></svg>