<?xml version="1.0" encoding="UTF-8"?><svg id="_レイヤー_1" xmlns="http://www.w3.org/2000/svg" viewBox="0 0 150 150"><defs><style>.cls-1{fill:#de520d;}</style></defs><path class="cls-1" d="m39.04,97.91c-.71-.58-1.44-1.15-2.12-1.76v.02s-.04-.03-.06-.04l-17.06,36.54-.49,1.31.64,1.02c.47.71,1.22,1.13,2.07,1.13h.4l16.3-5.07,6.45,15.43c.4.91,1.27,1.51,2.27,1.51s1.82-.56,2.22-1.42l13.19-28.25,3.9-8.31s-.01,0-.02,0l.03-.06c-10.39-1.48-19.88-5.78-27.73-12.04Z"/><path class="cls-1" d="m116.97,104.4l-3.83-8.24s0,0-.01.01l-.03-.06c-7.67,6.76-17.18,11.49-27.62,13.4-.74.13-1.47.28-2.21.38v.02s-.04,0-.06.01l17.1,36.65c.4.87,1.27,1.42,2.22,1.42s1.87-.6,2.27-1.51l6.45-15.43,15.99,4.96.38.11h.33c.84,0,1.6-.42,2.07-1.13l.67-1.25-13.72-29.34Z"/><path class="cls-1" d="m123.9,52.68c0-27.02-21.91-48.93-48.93-48.93S26.05,25.66,26.05,52.68s21.91,48.93,48.93,48.93,48.93-21.88,48.93-48.93Zm-48.93,22.66c-12.48,0-22.64-10.16-22.64-22.66s10.16-22.64,22.64-22.64,22.66,10.16,22.66,22.64-10.16,22.66-22.66,22.66Z"/></svg>