<?xml version="1.0" encoding="UTF-8"?><svg id="_レイヤー_1" xmlns="http://www.w3.org/2000/svg" viewBox="0 0 150 150"><defs><style>.cls-1{fill:none;}.cls-2{fill:#1db3ab;}</style></defs><path class="cls-1" d="m44.68,64.31c2.02,2.93,5.2,5.95,9.97,6.76,9.95,1.69,9.66-5.65,13.35-5.27.69-.07,1.24.13,1.75.49,1.4-1.18,2.88-2.23,4.42-3.18-1.59.19-3.17.38-4.79.53-8.84.83-17.25,1.02-24.69.68Z"/><path class="cls-1" d="m96.44,94.64s3.99,1.11,8.91,3.77c.94-3.33.45-6.97-1.57-9.93-5.07,3.47-7.34,6.15-7.34,6.15Z"/><path class="cls-2" d="m103.78,88.49c-.41-.6-.87-1.19-1.4-1.72-2.31-2.31-5.36-3.47-8.4-3.47s-6.09,1.16-8.4,3.47c-2.25,2.24-3.48,5.23-3.48,8.4s1.24,6.16,3.48,8.4c4.63,4.63,12.17,4.63,16.8,0,1.48-1.48,2.43-3.27,2.97-5.15-4.92-2.66-8.91-3.77-8.91-3.77,0,0,2.27-2.68,7.34-6.15Z"/><path class="cls-2" d="m67.31,68.5c.78-.78,1.6-1.51,2.44-2.21-.5-.36-1.06-.56-1.75-.49-3.69-.38-3.4,6.96-13.35,5.27-4.78-.81-7.95-3.83-9.97-6.76,7.44.34,15.85.15,24.69-.68,1.63-.15,3.21-.34,4.79-.53,5.9-3.66,12.69-5.66,19.81-5.66,2.11,0,4.17.21,6.21.55,13.03-3.85,21.23-8.88,20.7-13.66-.57-5.12-11.02-8.67-26.26-9.81-.26-.39-.52-.77-.81-1.16-1.44-7.71-3.03-16.21-3.51-18.61-1.15-5.74-9.4-8.95-15.54-4.81-3.22,2.17-6.09,2.33-7.62,2.33s-3.21.31-7.62-2.33c-6.38-3.82-14.39-.93-15.54,4.81-.57,2.82-2.67,14.12-4.25,22.62-.38.79-.7,1.56-.97,2.28-14.99,3.95-24.69,9.44-24.11,14.62.48,4.3,7.92,7.49,19.31,9.08.07.18.16.36.26.55,1.71,3.14,3.74,9.68,6.63,11.42-2.03,1.11-8.51,4.98-12.04,11.07,7.4,4.43,10.57,8.23,10.57,8.23,0,0-21.84,6.02-26.42,24.07-1.41,7.6,37.69,10.14,54.95,10.14,2.51,0,5.5-.06,8.75-.17-3.39-1.75-6.55-4.04-9.35-6.84-14.7-14.7-14.7-38.63,0-53.33Z"/><path class="cls-2" d="m126.08,117.5c-3.73-3.7-5.22-5.49-3.9-8.5,5.75-11.73,3.76-26.29-5.99-36.04-4.23-4.23-9.38-6.97-14.8-8.28-3.21-.78-6.51-1.05-9.79-.81-6.07.46-12.02,2.67-17.04,6.63-.96.76-1.9,1.56-2.79,2.45-12.27,12.27-12.27,32.15,0,44.42,9.75,9.75,24.31,11.74,36.03,5.99,2.13-.93,3.66-.43,5.68,1.25.83.69,1.74,1.57,2.83,2.65,2.53,2.54,11.81,13.15,11.81,13.15,4.81,4.81,8.51,1.85,10.73-.37,2.22-2.22,5.18-5.92.37-10.73,0,0-10.61-9.28-13.15-11.81Zm-15.22-15.58c-.89,2.22-2.22,4.31-4.02,6.11-7.11,7.1-18.62,7.1-25.72,0-7.1-7.1-7.1-18.62,0-25.72,4.76-4.76,11.48-6.25,17.55-4.63,2.99.8,5.82,2.29,8.17,4.63,5.3,5.3,6.64,13.06,4.02,19.61Z"/></svg>