<?xml version="1.0" encoding="UTF-8"?><svg id="_レイヤー_1" xmlns="http://www.w3.org/2000/svg" viewBox="0 0 150 150"><defs><style>.cls-1{fill:#1db3ab;}</style></defs><path class="cls-1" d="m83.86,120.09c-1.08.88-2.17,1.58-3.27,2.1-.75.08-1.49.14-2.25.18v-8.74c-1.8-1.48-3.62-3.01-5.43-4.58v13.32c-.75-.05-1.5-.1-2.25-.18-1.1-.52-2.19-1.22-3.27-2.1-3.53-2.88-6.84-7.73-9.38-13.98h11.55c-1.97-1.76-3.94-3.57-5.91-5.43h-7.54c-.9-3-1.63-6.23-2.18-9.61-2.15-2.22-4.23-4.45-6.25-6.67.45,5.78,1.39,11.27,2.78,16.28h-13.88c-3.89-6.28-6.3-13.56-6.75-21.39h13.33c-1.57-1.82-3.11-3.63-4.58-5.43h-8.75c.19-3.21.72-6.31,1.53-9.3-1.85-2.52-3.58-5-5.17-7.43-2.37,6.03-3.69,12.58-3.69,19.45,0,29.35,23.79,53.13,53.14,53.13,6.87,0,13.42-1.32,19.44-3.69-3.24-2.13-6.56-4.49-9.95-7.06-.42.4-.83.78-1.26,1.13Zm-40.69-11.07c-.93-.93-1.82-1.91-2.66-2.91h11.71c.87,2.38,1.83,4.64,2.9,6.72,1.26,2.44,2.67,4.67,4.2,6.64-6.11-2.32-11.6-5.9-16.14-10.45Z"/><path class="cls-1" d="m36.99,40.11c1.16,2.08,2.48,4.24,3.93,6.47.73-.84,1.46-1.67,2.25-2.46,4.56-4.55,10.06-8.14,16.18-10.46-2.85,3.65-5.24,8.19-7.14,13.38h-10.99c1.16,1.77,2.42,3.59,3.75,5.43h5.51c-.5,1.8-.93,3.68-1.32,5.6,1.46,1.87,2.98,3.76,4.56,5.67.57-3.99,1.37-7.79,2.42-11.27h16.77v21.39h-10.32c1.68,1.82,3.4,3.63,5.16,5.43h5.17v5.17c1.8,1.76,3.62,3.48,5.43,5.16v-10.32h20.08c-.22,7.8-1.41,15.08-3.3,21.39h-3.98c2.61,2.1,5.19,4.08,7.71,5.92.06-.17.13-.32.2-.49h11.7c-.85,1.01-1.73,1.98-2.66,2.91-.79.79-1.61,1.53-2.45,2.26,2.23,1.45,4.39,2.77,6.46,3.93,10.26-9.69,16.68-23.41,16.68-38.63,0-29.35-23.79-53.14-53.14-53.14-15.23,0-28.94,6.41-38.63,16.67Zm77.69,60.57h-13.9c1.79-6.47,2.88-13.7,3.09-21.39h17.56c-.46,7.82-2.87,15.1-6.75,21.39Zm0-48.21c3.89,6.28,6.3,13.56,6.76,21.39h-17.58c-.21-7.68-1.27-14.92-3.06-21.39h13.88Zm-6.6-8.35c.93.93,1.81,1.91,2.66,2.91h-11.7c-.87-2.38-1.83-4.64-2.9-6.72-1.26-2.44-2.67-4.67-4.19-6.64,6.11,2.32,11.59,5.91,16.14,10.45Zm-29.73-13.35c.76.05,1.51.1,2.25.18,1.1.52,2.18,1.22,3.27,2.1,3.53,2.87,6.84,7.73,9.38,13.98h-14.9v-16.26Zm0,21.7h16.8c1.9,6.3,3.07,13.59,3.3,21.39h-20.1v-21.39Zm-10.95-19.42c1.08-.88,2.17-1.58,3.27-2.1.74-.08,1.49-.14,2.25-.18v16.27h-14.87c.6-1.48,1.23-2.91,1.91-4.23,2.18-4.23,4.75-7.56,7.44-9.76Z"/><path class="cls-1" d="m134.15,113.07c-1.1-2.97-2.63-6.17-4.5-9.57-1.28,2.55-2.73,5-4.34,7.34.82,1.69,1.51,3.29,2.05,4.75,1.11,2.96,1.6,5.43,1.6,7.09,0,.78-.1,1.37-.24,1.77-.14.4-.28.6-.45.78-.17.16-.37.31-.77.45-.39.13-.98.24-1.77.24-1.56,0-3.85-.43-6.6-1.42-2.75-.97-5.96-2.47-9.47-4.42-12.06-6.7-27.73-18.88-43.18-34.34-15.46-15.45-27.63-31.12-34.34-43.18-1.96-3.52-3.45-6.72-4.42-9.47-.98-2.74-1.42-5.04-1.42-6.6,0-.79.11-1.37.24-1.77.14-.4.28-.6.45-.77.17-.17.38-.31.78-.45.39-.13.98-.24,1.77-.24,1.65,0,4.12.49,7.08,1.59,1.47.54,3.07,1.23,4.77,2.06,2.33-1.61,4.78-3.06,7.33-4.34-3.41-1.88-6.62-3.41-9.59-4.51-3.48-1.28-6.64-2.03-9.59-2.04-1.41,0-2.78.18-4.1.62-1.31.44-2.57,1.17-3.58,2.19-1.02,1.01-1.75,2.26-2.18,3.57-.44,1.31-.62,2.69-.62,4.09,0,2.8.68,5.77,1.83,9.02,1.16,3.25,2.81,6.78,4.92,10.57,7.21,12.93,19.7,28.93,35.55,44.78,15.85,15.85,31.85,28.34,44.78,35.55,3.79,2.1,7.32,3.76,10.57,4.92,3.26,1.15,6.23,1.82,9.02,1.83,1.4,0,2.78-.18,4.09-.62,1.31-.44,2.56-1.17,3.57-2.18,1.02-1.02,1.75-2.27,2.19-3.58.44-1.32.62-2.69.62-4.09-.01-2.96-.76-6.12-2.05-9.6Z"/></svg>