<?xml version="1.0" encoding="UTF-8"?><svg id="_レイヤー_1" xmlns="http://www.w3.org/2000/svg" viewBox="0 0 150 150"><defs><style>.cls-1{fill:none;}.cls-2{fill:#1db3ab;}</style></defs><path class="cls-1" d="m83.97,97.38c-.15,0-.31.06-.42.17l.85.85h0c.2-.2.2-.65,0-.85-.12-.11-.27-.17-.42-.17Z"/><path class="cls-1" d="m99.17,46.65l1.71.98-3.49,8.66c10.3-1.78,19.99-5.54,24.78-7.61l.06-.03.06-.02c4.67-1.63,8.62-4.45,11.36-7.92,2.74-3.49,4.28-7.59,4.28-12,0-2.89-.67-5.64-1.89-8.19-1.22-2.54-3.01-4.87-5.26-6.85-4.5-3.96-10.83-6.47-17.87-6.47-5.27,0-10.16,1.41-14.17,3.79-4.01,2.38-7.13,5.71-8.96,9.53-1.22,2.55-1.89,5.3-1.89,8.19,0,3.69,1.07,7.14,3.03,10.23,1.95,3.07,4.78,5.75,8.24,7.71Zm26.64-20.81c1.75,0,3.16,1.57,3.16,3.51s-1.41,3.51-3.16,3.51-3.16-1.57-3.16-3.51,1.41-3.51,3.16-3.51Zm-12.18,0c1.74,0,3.16,1.57,3.16,3.51s-1.41,3.51-3.16,3.51-3.16-1.57-3.16-3.51,1.42-3.51,3.16-3.51Zm-12.18,0c1.74,0,3.16,1.57,3.16,3.51,0,1.94-1.42,3.51-3.16,3.51s-3.16-1.57-3.16-3.51,1.41-3.51,3.16-3.51Z"/><path class="cls-1" d="m83.54,98.41c.2.2.65.2.85,0l-.85-.85c-.2.2-.2.65,0,.85Z"/><path class="cls-2" d="m95.63,49.62l-4.88,12.12,3.52-.43c12.18-1.51,23.84-6.05,29.37-8.43,5.26-1.87,9.8-5.06,13.07-9.2,3.29-4.17,5.29-9.36,5.29-14.97,0-3.67-.85-7.17-2.37-10.31-2.28-4.72-6.01-8.63-10.63-11.38-4.63-2.74-10.15-4.32-16.08-4.32-7.9,0-15.09,2.81-20.38,7.45-2.64,2.32-4.81,5.11-6.33,8.26-1.52,3.14-2.37,6.65-2.37,10.31,0,4.67,1.39,9.07,3.77,12.82,2.03,3.2,4.78,5.94,8.02,8.09Zm-5.84-29.1c1.83-3.81,4.96-7.15,8.96-9.53,4.01-2.38,8.89-3.79,14.17-3.79,7.04,0,13.37,2.51,17.87,6.47,2.25,1.98,4.04,4.31,5.26,6.85,1.22,2.55,1.88,5.3,1.89,8.19,0,4.41-1.54,8.51-4.28,12-2.74,3.48-6.68,6.29-11.36,7.92l-.06.02-.06.03c-4.79,2.07-14.48,5.82-24.78,7.61l3.49-8.66-1.71-.98c-3.46-1.97-6.29-4.64-8.24-7.71-1.95-3.08-3.02-6.54-3.03-10.23,0-2.89.66-5.64,1.89-8.19Z"/><path class="cls-2" d="m101.45,32.85c1.74,0,3.16-1.57,3.16-3.51,0-1.93-1.42-3.51-3.16-3.51s-3.16,1.57-3.16,3.51,1.41,3.51,3.16,3.51Z"/><path class="cls-2" d="m113.63,32.85c1.74,0,3.16-1.57,3.16-3.51s-1.41-3.51-3.16-3.51-3.16,1.57-3.16,3.51,1.42,3.51,3.16,3.51Z"/><path class="cls-2" d="m125.81,32.85c1.75,0,3.16-1.57,3.16-3.51s-1.41-3.51-3.16-3.51-3.16,1.57-3.16,3.51,1.41,3.51,3.16,3.51Z"/><path class="cls-2" d="m63.04,111.63l-.92-18.1c-2.04.4-4.13.63-6.29.63-3.66,0-7.18-.61-10.48-1.7-23.96,3.91-36.49,21.42-36.49,42.66h73.07l-15.22-15.22c-2.21-2.21-3.52-5.15-3.67-8.28Z"/><path class="cls-2" d="m75.13,75.91l1.52.08c3.06-4.21,4.89-9.37,4.89-14.96v-7.25c0-14.12-11.51-25.56-25.71-25.56s-25.71,11.45-25.71,25.56v7.25c0,14.12,11.51,25.56,25.71,25.56,2.22,0,4.36-.31,6.41-.83.52-2.31,1.63-4.47,3.33-6.17,2.53-2.52,6.02-3.85,9.56-3.68Z"/><path class="cls-2" d="m101.64,84.99c-1.16-1.15-2.7-1.84-4.32-1.92l-22.5-1.14c-1.86-.1-3.67.6-4.99,1.92-1.32,1.32-2.01,3.13-1.92,4.99l.2,4,.94,18.5c.08,1.63.76,3.17,1.92,4.32l19.48,19.48,10.77,10.77c2.57,2.57,6.74,2.57,9.31,0l21.35-21.35c2.57-2.57,2.57-6.74,0-9.31l-30.24-30.24Zm-13.75,16.72s-.06.08-.09.11c-2.12,2.12-5.55,2.12-7.67,0-1.53-1.53-1.93-3.73-1.26-5.63.26-.74.67-1.44,1.26-2.03,2.12-2.12,5.55-2.12,7.67,0,2.08,2.08,2.11,5.43.09,7.56Z"/></svg>