<?xml version="1.0" encoding="UTF-8"?><svg id="_レイヤー_1" xmlns="http://www.w3.org/2000/svg" viewBox="0 0 150 150"><defs><style>.cls-1{fill:#fff;opacity:.7;}</style></defs><path class="cls-1" d="m41.03,11.87c-3.79-1.56-10.61-2.4-12.27,5.73-1.65,8.14-.13,67.68,0,73.1.13,5.43,1.95,10.7,8.09,20.04,8.81,13.41,35.55,28.72,35.55,28.72V42.13c-7.09-6.92-27.58-28.7-31.37-30.26Z"/><path class="cls-1" d="m108.97,11.56c3.79-1.56,10.61-2.41,12.27,5.73,1.65,8.14.13,67.68,0,73.1-.13,5.42-1.95,10.7-8.09,20.04-8.81,13.41-35.55,28.71-35.55,28.71V41.82c7.09-6.92,27.58-28.7,31.37-30.26Z"/></svg>