<?xml version="1.0" encoding="UTF-8"?><svg id="_レイヤー_1" xmlns="http://www.w3.org/2000/svg" viewBox="0 0 150 150"><defs><style>.cls-1{fill:#1db3ab;}</style></defs><path class="cls-1" d="m125.47,69.11c17.55-26.17,12.28-48.26-3.95-57.47-15.23-8.65-24.07-.79-33.78,1.85-12.28-8.21-29.46-9.19-50.89,1.66-10.53-.44-23.25,10.09-21.06,20.18.89,4.1,3.96,6.75,7.28,8.45-.17,1.47-.16,2.86.03,4.12.36,2.36.55,4.4.57,6.24-1.94.81-6.66,2.58-10.07,2.24,0,0,3.86,3.09,9.41,3.11-.89,3.15-2.71,5.99-5.75,9.47-3.27,3.73.29,5.85,1.76,6.73,1.46.88,2.34,4.38.88,5.85-1.46,1.46,0,2.34,1.17,3.22,1.17.87-1.23,3.31,0,4.09,3.22,2.05,1.75,5.56,2.05,7.9.29,2.34,2.41,6.05,10.82,3.21,13.45-4.54,18.43,7.31,21.64,17.85,3.22,10.52-11.26,27.63-11.26,27.63-6.14,7.02,22.37-2.19,33.78-6.58,6.26-2.41,20.77-9.21,16.96-13.16,0,0-7.31-3.95-11.26-11.4-4.85-9.17-4.58-15.75-3.66-17.85,4.37-9.86,19.23-23.31,23.4-38.33,2.84-7.64,3.86-16.08.44-24.11-1.26-2.95-2.72-5.72-4.37-8.28,7.27,1.51,16.78,6.43,11.83,22.17-4.97,15.8-17.55,38.02-6.58,53.67,9.17,13.08,23.69,8.78,23.69,8.78-6.58-7.9-17.31-20.01-3.07-41.24Z"/></svg>