<?xml version="1.0" encoding="UTF-8"?><svg id="_レイヤー_1" xmlns="http://www.w3.org/2000/svg" viewBox="0 0 150 150"><defs><style>.cls-1{fill:#1db3ab;}</style></defs><path class="cls-1" d="m99.21,79.73l3.85,6.79c2.33-2.05,4.39-4.41,6.14-6.99,3.97-5.86,6.29-12.96,6.29-20.55,0-5.06-1.03-9.9-2.9-14.3-2.8-6.6-7.46-12.21-13.32-16.18-5.87-3.97-12.96-6.29-20.55-6.29-5.06,0-9.9,1.03-14.3,2.89-6.6,2.8-12.21,7.46-16.18,13.33-3.97,5.86-6.29,12.95-6.29,20.55,0,5.07,1.03,9.91,2.9,14.31,2.16,5.11,5.44,9.61,9.53,13.23l3.85-6.8c-1.38-1.35-2.61-2.84-3.7-4.44-3.15-4.67-4.99-10.25-4.99-16.3,0-4.03.82-7.85,2.3-11.34,2.21-5.23,5.93-9.7,10.59-12.85,4.66-3.15,10.25-4.99,16.3-4.99,4.03,0,7.85.82,11.34,2.29,5.23,2.21,9.7,5.93,12.85,10.59,3.15,4.67,4.99,10.25,4.99,16.3,0,4.03-.82,7.85-2.3,11.34-1.5,3.54-3.68,6.73-6.39,9.4Z"/><path class="cls-1" d="m130.67,37.05c-4.29-10.12-11.44-18.73-20.44-24.81-9-6.08-19.86-9.65-31.51-9.65-7.76,0-15.19,1.58-21.94,4.44-10.12,4.29-18.73,11.44-24.81,20.44-6.08,9-9.65,19.86-9.64,31.51,0,7.77,1.58,15.19,4.44,21.94,3.86,9.11,10.05,17,17.81,22.92l3.79-6.68c-3.89-3.1-7.31-6.78-10.1-10.91-5.27-7.79-8.34-17.16-8.34-27.26,0-6.73,1.37-13.14,3.84-18.97,3.71-8.75,9.91-16.22,17.7-21.48,7.8-5.27,17.16-8.34,27.26-8.35,6.74,0,13.14,1.37,18.97,3.84,8.75,3.7,16.22,9.9,21.49,17.7,5.27,7.79,8.34,17.16,8.34,27.25,0,6.74-1.37,13.14-3.84,18.97-3.2,7.55-8.26,14.15-14.6,19.2l3.78,6.68c4.89-3.73,9.15-8.24,12.6-13.34,6.08-9,9.65-19.86,9.64-31.52,0-7.76-1.58-15.18-4.44-21.93Z"/><path class="cls-1" d="m82.07,72.03c6.19-1.51,10.8-7.06,10.8-13.72,0-7.82-6.34-14.16-14.16-14.16s-14.16,6.34-14.16,14.16c0,6.66,4.61,12.2,10.8,13.72v3l-34.38,60.74,5.83,3.3,10.08-17.81,18.47,7.41v19.1h6.71v-19.1l18.47-7.41,10.08,17.81,5.83-3.3-34.38-60.74v-3Zm-6.71,49.43l-15.13-6.07,15.13-26.74v32.81Zm21.84-6.07l-15.13,6.07v-32.81l15.13,26.74Z"/></svg>