<?xml version="1.0" encoding="UTF-8"?><svg id="_レイヤー_1" xmlns="http://www.w3.org/2000/svg" viewBox="0 0 150 150"><defs><style>.cls-1{fill:none;}.cls-2{fill:#1db3ab;}</style></defs><path class="cls-1" d="m100.23,49.34l-3.46,8.59c10.21-1.77,19.82-5.49,24.58-7.54l.06-.03.06-.02c4.63-1.62,8.55-4.41,11.26-7.86,2.72-3.46,4.25-7.53,4.25-11.9,0-2.87-.66-5.6-1.87-8.12-1.21-2.52-2.99-4.83-5.22-6.79-4.47-3.92-10.74-6.42-17.72-6.42-5.23,0-10.07,1.4-14.05,3.76-3.98,2.36-7.07,5.67-8.89,9.45-1.21,2.52-1.87,5.25-1.87,8.12,0,3.65,1.07,7.08,3,10.14,1.93,3.05,4.74,5.7,8.17,7.65l1.7.97Zm24.72-21.6c1.73,0,3.13,1.56,3.13,3.48s-1.4,3.48-3.13,3.48-3.13-1.56-3.13-3.48,1.4-3.48,3.13-3.48Zm-12.07,0c1.73,0,3.13,1.56,3.13,3.48s-1.4,3.48-3.13,3.48-3.13-1.56-3.13-3.48,1.4-3.48,3.13-3.48Zm-12.08,0c1.73,0,3.13,1.56,3.13,3.48s-1.4,3.48-3.13,3.48-3.13-1.56-3.13-3.48,1.4-3.48,3.13-3.48Z"/><path class="cls-1" d="m85.57,85.47c-2.88,0-5.76,1.1-7.95,3.29-1.93,1.93-3.03,4.45-3.22,7.14,6.8,2.32,12.37,5.96,16.7,10.55.86-.49,1.69-1.05,2.43-1.79,4.38-4.38,4.38-11.52,0-15.9-2.19-2.19-5.07-3.29-7.95-3.29Z"/><path class="cls-2" d="m100.79,34.7c1.73,0,3.13-1.56,3.13-3.48s-1.4-3.48-3.13-3.48-3.13,1.56-3.13,3.48,1.4,3.48,3.13,3.48Z"/><path class="cls-2" d="m112.87,34.7c1.73,0,3.13-1.56,3.13-3.48s-1.4-3.48-3.13-3.48-3.13,1.56-3.13,3.48,1.4,3.48,3.13,3.48Z"/><path class="cls-2" d="m124.95,34.7c1.73,0,3.13-1.56,3.13-3.48s-1.4-3.48-3.13-3.48-3.13,1.56-3.13,3.48,1.4,3.48,3.13,3.48Z"/><path class="cls-2" d="m60.32,121.96c-7.39-7.4-10.82-17.25-10.36-26.96-1.64-.29-3.25-.68-4.8-1.2-23.76,3.88-36.19,21.24-36.19,42.3h93.15c0-1.86-.13-3.67-.32-5.46-.48-.47-1.04-1.01-1.5-1.41-13.36,6.14-29.4,3.31-39.99-7.28Z"/><path class="cls-2" d="m74.32,96.71c0,3,1.17,5.83,3.3,7.95,3.65,3.65,9.19,4.21,13.48,1.79-4.33-4.59-9.89-8.22-16.7-10.55-.02.27-.08.53-.08.81Z"/><path class="cls-2" d="m81.05,61.31v-5.87c0-14-11.41-25.35-25.49-25.35s-25.49,11.35-25.49,25.35v7.19c0,12.49,9.08,22.84,21.03,24.94,1.55-5.9,4.6-11.49,9.22-16.11,5.66-5.67,12.91-9.16,20.73-10.15Z"/><path class="cls-2" d="m115.96,117.85c-3.53-3.51-4.94-5.2-3.7-8.05,5.45-11.11,3.56-24.89-5.67-34.12-7.08-7.08-16.84-9.82-26.02-8.27-5.87.99-11.51,3.73-16.04,8.27-3.54,3.54-5.98,7.75-7.37,12.22-.76,2.47-1.18,5.02-1.29,7.58-.33,8.01,2.53,16.14,8.65,22.26,9.23,9.23,23.02,11.12,34.12,5.67.61-.26,1.15-.38,1.68-.41,1.96-.11,3.61,1.33,6.37,4.11,2.4,2.4,11.18,12.45,11.18,12.45,4.55,4.55,8.06,1.75,10.16-.35,2.1-2.11,4.9-5.61.35-10.16,0,0-10.04-8.79-12.45-11.19Zm-18.22-8.97c-.88.88-1.83,1.63-2.84,2.28-6.67,4.32-15.67,3.57-21.51-2.28-3.97-3.97-5.53-9.38-4.82-14.54.5-3.59,2.06-7.05,4.82-9.81,6.72-6.72,17.62-6.72,24.35,0,6.72,6.72,6.72,17.62,0,24.35Z"/><path class="cls-2" d="m93.67,62.91c.79-.1,1.57-.24,2.35-.36,11.2-1.75,21.64-5.79,26.77-7.99,5.22-1.85,9.72-5.02,12.96-9.13,3.26-4.14,5.24-9.28,5.24-14.84,0-3.64-.85-7.11-2.35-10.23-2.26-4.68-5.96-8.56-10.54-11.28-4.59-2.72-10.07-4.28-15.95-4.29-7.83,0-14.97,2.78-20.21,7.38-2.62,2.3-4.77,5.07-6.27,8.19-1.5,3.12-2.35,6.59-2.35,10.23,0,4.64,1.38,9,3.73,12.71,2.01,3.18,4.74,5.89,7.95,8.02l-4.07,10.12-.77,1.9,3.49-.43Zm-3.32-22.19c-1.94-3.06-3-6.48-3-10.14,0-2.87.66-5.6,1.87-8.12,1.82-3.78,4.91-7.09,8.89-9.45,3.98-2.36,8.82-3.76,14.05-3.76,6.98,0,13.26,2.49,17.72,6.42,2.23,1.96,4.01,4.27,5.22,6.79,1.21,2.52,1.87,5.25,1.87,8.12,0,4.37-1.53,8.44-4.25,11.9-2.71,3.45-6.63,6.24-11.26,7.86l-.06.02-.06.03c-4.75,2.05-14.36,5.77-24.58,7.54l3.46-8.59-1.7-.97c-3.43-1.95-6.24-4.6-8.17-7.65Z"/></svg>