<?xml version="1.0" encoding="UTF-8"?><svg id="_レイヤー_1" xmlns="http://www.w3.org/2000/svg" viewBox="0 0 150 150"><defs><style>.cls-1{fill:#1db3ab;}</style></defs><path class="cls-1" d="m76.45,63.35c9.01,0,16.31-7.3,16.31-16.31s-7.3-16.31-16.31-16.31-16.31,7.3-16.31,16.31c0,9.01,7.3,16.31,16.31,16.31Z"/><path class="cls-1" d="m112.17,7.61c-1.43-1.53-3.82-1.61-5.35-.18-1.53,1.42-3.6,8.51-3.59,8.52.01.02,7.22-1.57,8.75-3,1.53-1.43,1.61-3.82.18-5.35Z"/><path class="cls-1" d="m103.7,30.09c1.77-.86,2.5-3,1.64-4.76-.87-1.77-3-2.5-4.77-1.64-1.77.86-5.58,6.67-5.58,6.69,0,.02,6.94.57,8.71-.29Z"/><path class="cls-1" d="m95.9,14.48c1.04-2.3.01-5.01-2.29-6.05-2.31-1.04-5.01-.01-6.05,2.29-1.03,2.3-.04,11.17-.01,11.18.02.01,7.32-5.13,8.35-7.43Z"/><path class="cls-1" d="m136.38,35.47c-2.99-2.72-7.62-2.51-10.34.48l-29.21,25.17c-11.48,9.89-28.45,9.89-39.93,0l-29.22-25.17c-2.72-2.99-7.35-3.2-10.34-.48-2.99,2.72-3.2,7.35-.48,10.34l39.15,43.83v13.42c0,5.49,12.34,9.58,20.85,9.58s20.85-4.09,20.85-9.58v-13.42l39.15-43.83c2.72-2.99,2.51-7.61-.48-10.34Z"/><path class="cls-1" d="m107.97,95.1v9.63c0,12.71-20.27,17.96-31.12,17.96s-31.12-5.26-31.12-17.96v-9.61c-16.29,4.47-27.12,12.37-27.12,21.36,0,13.96,26.07,25.29,58.23,25.29s58.26-11.32,58.26-25.29c0-9-10.83-16.89-27.14-21.39Z"/></svg>