<?xml version="1.0" encoding="UTF-8"?><svg id="_レイヤー_1" xmlns="http://www.w3.org/2000/svg" viewBox="0 0 150 150"><defs><style>.cls-1{fill:#1db3ab;}</style></defs><path class="cls-1" d="m138.71,23.65c-2.21-4.58-5.83-8.37-10.31-11.03-4.48-2.66-9.84-4.19-15.59-4.19-7.66,0-14.63,2.72-19.76,7.22-2.56,2.25-4.67,4.95-6.13,8-1.47,3.05-2.29,6.44-2.29,10,0,4.53,1.34,8.8,3.65,12.43,1.97,3.11,4.63,5.76,7.78,7.84l-4.73,11.75,3.42-.42c11.81-1.47,23.11-5.86,28.47-8.17,5.1-1.81,9.5-4.9,12.67-8.92,3.19-4.05,5.13-9.08,5.12-14.51,0-3.56-.83-6.95-2.29-10Zm-5.79,21.63c-2.65,3.37-6.48,6.1-11.01,7.68l-.06.02-.06.03c-4.64,2-14.04,5.65-24.03,7.37l3.39-8.4-1.66-.95c-3.35-1.91-6.1-4.5-7.99-7.48-1.89-2.99-2.93-6.34-2.93-9.91,0-2.81.64-5.47,1.83-7.94,1.78-3.69,4.8-6.93,8.69-9.23,3.89-2.31,8.62-3.68,13.73-3.67,6.82,0,12.96,2.44,17.32,6.27,2.18,1.92,3.92,4.17,5.1,6.64,1.18,2.47,1.83,5.13,1.83,7.94,0,4.27-1.49,8.25-4.15,11.63Z"/><path class="cls-1" d="m101.69,30.86c-1.69,0-3.06,1.52-3.06,3.4s1.37,3.4,3.06,3.4,3.06-1.52,3.06-3.4c0-1.87-1.37-3.4-3.06-3.4Z"/><path class="cls-1" d="m113.5,30.86c-1.69,0-3.06,1.52-3.06,3.4s1.37,3.4,3.06,3.4,3.06-1.52,3.06-3.4c0-1.87-1.37-3.4-3.06-3.4Z"/><path class="cls-1" d="m125.3,30.86c-1.69,0-3.06,1.52-3.06,3.4s1.37,3.4,3.06,3.4,3.06-1.52,3.06-3.4c0-1.87-1.37-3.4-3.06-3.4Z"/><path class="cls-1" d="m67.63,95.45c-3.2,1.06-6.61,1.65-10.16,1.65s-6.96-.59-10.16-1.65c-23.22,3.79-35.38,20.76-35.38,41.36h91.07c0-20.6-12.15-37.57-35.38-41.36Z"/><path class="cls-1" d="m57.47,89.75c13.77,0,24.92-11.1,24.92-24.78v-7.03c0-13.69-11.16-24.78-24.92-24.78s-24.92,11.1-24.92,24.78v7.03c0,13.69,11.16,24.78,24.92,24.78Z"/></svg>