<?xml version="1.0" encoding="UTF-8"?><svg id="_レイヤー_1" xmlns="http://www.w3.org/2000/svg" viewBox="0 0 150 150"><defs><style>.cls-1{fill:none;}.cls-2{fill:#fff;}.cls-3{fill:#1db3ab;}</style></defs><path class="cls-1" d="m35.63,88.41c-5.27.49-10.28.61-14.71.4,1.2,1.74,3.1,3.54,5.94,4.03,5.93,1.01,5.76-3.37,7.95-3.14,2.2-.23,2.02,4.15,7.95,3.14,4.52-.77,6.65-4.87,7.4-6.77-4.31,1.03-9.25,1.84-14.54,2.34Z"/><path class="cls-1" d="m52.03,106.97c-.06-.06-.12-.13-.17-.19-.06.07-.1.11-.1.11,0,0,.11.03.27.08Z"/><path class="cls-1" d="m101.16,89.08c-.23,0-.42.19-.42.41,0,.46.83.46.83,0,0-.23-.18-.41-.41-.41Z"/><path class="cls-3" d="m51.76,106.88s.03-.04.1-.11c-.63-.73-1.22-1.51-1.72-2.37-2.8-4.85-2.8-10.88,0-15.73l9.4-16.27c-2.44-.63-5.45-1.09-8.86-1.34-.15-.23-.31-.46-.48-.69-.86-4.6-1.81-9.66-2.09-11.09-.68-3.42-5.6-5.33-9.26-2.87-1.92,1.29-3.63,1.39-4.54,1.39s-1.92.18-4.54-1.39c-3.8-2.28-8.58-.55-9.26,2.87-.34,1.68-1.59,8.41-2.53,13.48-.23.47-.42.93-.58,1.36-8.93,2.35-14.71,5.62-14.37,8.71.29,2.56,4.72,4.46,11.51,5.41.04.11.09.22.16.33,1.02,1.87,2.23,5.77,3.95,6.81-1.21.66-5.07,2.97-7.18,6.6,4.41,2.64,6.3,4.91,6.3,4.91,0,0-13.01,3.59-15.74,14.34-.84,4.53,22.46,6.04,32.74,6.04s33.58-1.51,32.74-6.04c-1-3.96-3.41-6.94-6.04-9.14-3.65-.54-6.99-2.38-9.43-5.12-.16-.05-.27-.08-.27-.08Zm-9-14.05c-5.93,1.01-5.75-3.37-7.95-3.14-2.2-.23-2.02,4.15-7.95,3.14-2.85-.48-4.74-2.28-5.94-4.03,4.44.2,9.44.09,14.71-.4,5.29-.5,10.23-1.31,14.54-2.34-.75,1.9-2.88,6-7.4,6.77Z"/><path class="cls-2" d="m101.16,44.27c-3.23,0-5.86,2.62-5.86,5.86l2.25,26.48c0,1.99,1.61,3.61,3.61,3.61s3.61-1.61,3.61-3.61l2.25-26.48c0-3.23-2.62-5.86-5.85-5.86Z"/><path class="cls-2" d="m101.16,83.64c-3.23,0-5.86,2.62-5.86,5.85s2.63,5.86,5.86,5.86,5.85-2.62,5.85-5.86-2.62-5.85-5.85-5.85Zm-.42,5.86c0-.23.19-.41.42-.41s.41.18.41.41c0,.46-.83.46-.83,0Z"/><path class="cls-2" d="m146.74,101.27c-1.68,2.92-4.82,4.73-8.19,4.73H63.76c-2.72,0-5.27-1.19-7.04-3.18-.43-.48-.82-.99-1.15-1.55-.63-1.09-1.02-2.27-1.18-3.49-.27-2.04.12-4.14,1.18-5.97l5.43-9.4,4.24-7.35,27.72-48.01c1.68-2.92,4.82-4.73,8.19-4.73s6.51,1.81,8.19,4.73l37.39,64.76c1.68,2.91,1.68,6.54,0,9.46Z"/><path class="cls-3" d="m109.35,27.05c-1.68-2.92-4.82-4.73-8.19-4.73s-6.51,1.81-8.19,4.73l-27.72,48.01-4.24,7.35-5.43,9.4c-1.06,1.83-1.45,3.94-1.18,5.97.16,1.21.55,2.4,1.18,3.49.33.57.72,1.07,1.15,1.55,1.78,1.99,4.33,3.18,7.04,3.18h74.78c3.37,0,6.51-1.81,8.19-4.73,1.68-2.92,1.68-6.54,0-9.46L109.35,27.05Zm-8.19,68.3c-3.23,0-5.86-2.62-5.86-5.86s2.63-5.85,5.86-5.85,5.85,2.62,5.85,5.85-2.62,5.86-5.85,5.86Zm3.61-18.74c0,1.99-1.62,3.61-3.61,3.61s-3.61-1.61-3.61-3.61l-2.25-26.48c0-3.23,2.63-5.86,5.86-5.86s5.85,2.62,5.85,5.86l-2.25,26.48Z"/></svg>