<?xml version="1.0" encoding="UTF-8"?><svg id="_レイヤー_1" xmlns="http://www.w3.org/2000/svg" viewBox="0 0 150 150"><defs><style>.cls-1{fill:#1db3ab;}</style></defs><path class="cls-1" d="m108.77,9.06h-63.37c-12.26,0-22.23,9.97-22.23,22.23v88.07c0,12.26,9.97,22.23,22.23,22.23h47.44l2.41-2.41,33.34-33.34,2.41-2.41V31.29c0-12.26-9.97-22.23-22.23-22.23Zm14,90.96h-21.67c-6.44,0-11.67,5.23-11.67,11.67v21.67h-44.04c-7.73,0-14-6.27-14-14V31.29c0-7.73,6.27-14,14-14h63.37c7.74,0,14,6.27,14,14v68.73h0Z"/><rect class="cls-1" x="45.42" y="41.91" width="7.94" height="7.58"/><rect class="cls-1" x="45.42" y="60.36" width="7.94" height="7.58"/><rect class="cls-1" x="45.42" y="78.81" width="7.94" height="7.58"/><rect class="cls-1" x="45.42" y="97.26" width="7.94" height="7.58"/><rect class="cls-1" x="61.93" y="41.91" width="46.82" height="7.58"/><rect class="cls-1" x="61.93" y="60.36" width="46.82" height="7.58"/><rect class="cls-1" x="61.93" y="78.81" width="46.82" height="7.58"/><rect class="cls-1" x="61.93" y="97.26" width="19.24" height="7.58"/></svg>