<?xml version="1.0" encoding="UTF-8"?><svg id="_レイヤー_1" xmlns="http://www.w3.org/2000/svg" viewBox="0 0 150 150"><defs><style>.cls-1{fill:#1db3ab;}</style></defs><path class="cls-1" d="m129.36,129.09c-4.49-17.71-25.92-23.62-25.92-23.62,0,0,3.11-3.73,10.37-8.08-3.42-5.89-9.64-9.67-11.73-10.82,2.88-1.64,4.89-8.15,6.59-11.26,1.86-3.41-1.49-5.11-3.35-4.77,0,0,0-.18,0-.51,13.83-3.83,22.66-9.02,22.11-13.93-.56-5.02-10.81-8.51-25.76-9.62-.25-.38-.51-.76-.8-1.14-1.41-7.57-2.97-15.91-3.44-18.25-1.13-5.63-9.23-8.78-15.25-4.72-3.16,2.13-5.98,2.28-7.47,2.28s-3.15.3-7.47-2.28c-6.26-3.75-14.12-.91-15.25,4.72-.56,2.77-2.62,13.85-4.17,22.19-.38.78-.69,1.53-.95,2.23-14.71,3.87-24.22,9.26-23.66,14.35.47,4.22,7.77,7.35,18.95,8.91.07.18.16.35.26.54,1.68,3.08,3.67,9.5,6.51,11.21-2,1.09-8.35,4.89-11.81,10.86,7.26,4.35,10.37,8.08,10.37,8.08,0,0-21.43,5.91-25.92,23.62-1.38,7.46,36.98,9.94,53.91,9.94s55.29-2.48,53.91-9.94Zm-40.73-46.75c-9.76,1.66-9.47-5.54-13.09-5.17-3.62-.37-3.33,6.83-13.1,5.17-4.69-.79-7.8-3.76-9.79-6.63,7.3.34,15.55.14,24.22-.67,8.7-.82,16.84-2.16,23.94-3.85-1.24,3.13-4.74,9.88-12.19,11.14Z"/></svg>