<?xml version="1.0" encoding="UTF-8"?><svg id="_レイヤー_1" xmlns="http://www.w3.org/2000/svg" viewBox="0 0 150 150"><defs><style>.cls-1{fill:#1db3ab;}</style></defs><path class="cls-1" d="m71.18,8.92c-20.58,0-37.27,16.68-37.27,37.27,0,8.77,3.03,16.83,8.1,23.2,6.83,8.57,10.43,11.99,10.43,21.97,0,4.58,2.08,6.66,5.41,6.66h26.64c3.33,0,5.42-2.08,5.42-6.66,0-9.99,3.6-13.4,10.43-21.97,5.07-6.37,8.1-14.43,8.1-23.2,0-20.59-16.68-37.27-37.27-37.27Z"/><path class="cls-1" d="m71.18,141.65c4.61,0,8.35-3.74,8.35-8.35h-16.7c0,4.61,3.74,8.35,8.35,8.35Z"/><path class="cls-1" d="m85.5,103.86h-28.65c-2.49,0-4.5,2.02-4.5,4.5s2.02,4.51,4.5,4.51h28.65c2.49,0,4.51-2.02,4.51-4.51s-2.02-4.5-4.51-4.5Z"/><path class="cls-1" d="m85.5,118.41h-28.65c-2.49,0-4.5,2.02-4.5,4.51s2.02,4.5,4.5,4.5h28.65c2.49,0,4.51-2.02,4.51-4.5s-2.02-4.51-4.51-4.51Z"/></svg>