<?xml version="1.0" encoding="UTF-8"?><svg id="_レイヤー_1" xmlns="http://www.w3.org/2000/svg" viewBox="0 0 150 150"><defs><style>.cls-1{fill:#1db3ab;}</style></defs><path class="cls-1" d="m20.89,22.26c-5.29,9.13-8.35,19.75-8.35,31.04,0,11.3,3.05,21.91,8.35,31.04l5.84-3.39c-4.72-8.15-7.43-17.58-7.44-27.66,0-10.08,2.71-19.5,7.44-27.65l-5.84-3.39Z"/><path class="cls-1" d="m36.26,30.35c-3.91,6.75-6.17,14.6-6.17,22.94,0,8.35,2.26,16.2,6.17,22.95l5.84-3.39c-3.34-5.77-5.26-12.43-5.26-19.56,0-7.13,1.92-13.79,5.26-19.56l-5.84-3.38Z"/><path class="cls-1" d="m128.4,22.26l-5.84,3.39c4.72,8.15,7.44,17.58,7.44,27.65,0,10.08-2.71,19.51-7.44,27.66l5.84,3.39c5.29-9.14,8.35-19.75,8.35-31.04,0-11.29-3.05-21.91-8.35-31.04Z"/><path class="cls-1" d="m107.18,33.74c3.34,5.77,5.26,12.43,5.26,19.56,0,7.13-1.92,13.79-5.26,19.56l5.84,3.39c3.91-6.75,6.17-14.6,6.17-22.95s-2.26-16.19-6.17-22.94l-5.84,3.38Z"/><path class="cls-1" d="m57.49,64.76h0c-1.97-3.39-3.1-7.28-3.1-11.46s1.13-8.06,3.1-11.45l-5.84-3.38c-2.53,4.36-4.01,9.43-4.01,14.84,0,5.41,1.48,10.49,4.01,14.84l5.84-3.38Z"/><path class="cls-1" d="m97.63,68.14h0c2.53-4.36,4.01-9.44,4.01-14.84,0-5.41-1.48-10.48-4.01-14.84l-5.84,3.39c1.96,3.39,3.1,7.28,3.1,11.45,0,4.18-1.13,8.07-3.1,11.46l5.84,3.39Z"/><path class="cls-1" d="m84,93.03c-1.65-4.61-3-8.9-3.93-12.5-.46-1.8-.81-3.42-1.05-4.8-.24-1.38-.34-2.53-.34-3.31v-10.35c3.32-1.53,5.62-4.88,5.62-8.78,0-5.34-4.33-9.67-9.67-9.67s-9.67,4.33-9.67,9.67c0,3.9,2.31,7.25,5.63,8.78v10.35c0,1.04-.19,2.73-.61,4.77-.73,3.59-2.1,8.32-3.9,13.56-2.71,7.86-6.39,16.9-10.35,25.38-3.74,8.02-7.75,15.54-11.34,21.08h9.52c2.06-3.51,4.15-7.41,6.21-11.53.43-.85.85-1.73,1.27-2.6l30.3,7.45c1.24,2.34,2.48,4.58,3.72,6.68h9.5c-2.68-4.14-5.61-9.4-8.47-15.14-4.63-9.28-9.12-19.81-12.42-29.04Zm-11.1,2.73c.62-1.74,1.19-3.43,1.73-5.08.29.89.59,1.79.91,2.71,1.7,4.93,3.74,10.24,5.99,15.59l-12.52-3.08c1.41-3.46,2.72-6.87,3.89-10.14Zm-9.17,22.34c1.09-2.37,2.15-4.76,3.18-7.16l17.32,4.26c.65,1.46,1.31,2.91,1.98,4.35.73,1.56,1.47,3.1,2.22,4.62l-24.7-6.07Z"/></svg>