<?xml version="1.0" encoding="UTF-8"?><svg id="_レイヤー_1" xmlns="http://www.w3.org/2000/svg" viewBox="0 0 150 150"><defs><style>.cls-1{fill:none;}.cls-2{fill:#1db3ab;}</style></defs><path class="cls-1" d="m71.3,63.98c3.62-.37,3.33,6.83,13.09,5.17,7.45-1.26,10.95-8.02,12.19-11.15-7.1,1.69-15.23,3.03-23.94,3.85-8.67.81-16.92,1-24.22.67,1.98,2.87,5.1,5.84,9.79,6.63,9.76,1.66,9.48-5.54,13.1-5.17Z"/><path class="cls-2" d="m67.9,108.81l-1.17-23.11c-.19-3.65,1.18-7.22,3.77-9.81,2.59-2.59,6.18-3.95,9.82-3.78l17.99.92c2.63-2.03,4.53-7.95,6.13-10.89,1.86-3.41-1.49-5.11-3.35-4.77,0,0,0-.18,0-.51,13.83-3.83,22.66-9.02,22.11-13.93-.56-5.02-10.81-8.51-25.76-9.62-.25-.38-.51-.76-.8-1.14-1.41-7.57-2.97-15.91-3.44-18.25-1.13-5.63-9.23-8.78-15.25-4.72-3.16,2.13-5.98,2.28-7.47,2.28s-3.15.3-7.47-2.28c-6.26-3.75-14.12-.91-15.25,4.72-.56,2.77-2.62,13.85-4.17,22.19-.38.78-.69,1.53-.95,2.23-14.71,3.87-24.22,9.26-23.66,14.35.47,4.22,7.77,7.35,18.95,8.91.07.18.16.35.26.54,1.68,3.08,3.67,9.5,6.51,11.21-2,1.09-8.35,4.89-11.81,10.86,7.26,4.35,10.37,8.08,10.37,8.08,0,0-21.43,5.91-25.92,23.62-1.38,7.46,36.98,9.94,53.91,9.94,2.53,0,5.54-.06,8.81-.18l-8.36-8.36c-2.27-2.27-3.61-5.29-3.77-8.5Zm-9.69-39.65c-4.69-.79-7.8-3.76-9.79-6.63,7.3.34,15.55.14,24.22-.67,8.7-.82,16.84-2.16,23.94-3.85-1.24,3.13-4.74,9.88-12.19,11.15-9.76,1.66-9.47-5.54-13.09-5.17-3.62-.37-3.33,6.83-13.1,5.17Z"/><path class="cls-2" d="m107.93,81.8l-.37-.37c-1.19-1.18-2.77-1.89-4.44-1.97l-23.12-1.18c-1.91-.1-3.77.62-5.13,1.97-1.35,1.35-2.07,3.22-1.97,5.13l1.17,23.12c.08,1.67.79,3.26,1.97,4.44l12.31,12.31,18.76,18.76c2.64,2.64,6.93,2.64,9.57,0l21.94-21.94c2.64-2.64,2.64-6.93,0-9.57l-30.7-30.7Zm-14.59,16.92c-2.18,2.18-5.7,2.18-7.88,0-2.18-2.18-2.18-5.7,0-7.88,2.18-2.18,5.7-2.18,7.88,0,2.18,2.18,2.18,5.7,0,7.88Z"/></svg>